<?xml version="1.0" encoding="utf-8"?>
<!-- Generator: Adobe Illustrator 27.5.0, SVG Export Plug-In . SVG Version: 6.00 Build 0)  -->
<svg version="1.1" id="Layer_1" xmlns="http://www.w3.org/2000/svg" xmlns:xlink="http://www.w3.org/1999/xlink" x="0px" y="0px"
	 viewBox="0 0 1080 1080" style="enable-background:new 0 0 1080 1080;" xml:space="preserve">
<style type="text/css">
	.st0{fill:#FFFFFF;}
	.st1{fill:#3FA9F5;}
	.st2{fill:#7AC943;}
	.st3{fill:#FF1D25;}
	.st4{fill:none;}
</style>
<path class="st0" d="M679.09,466.43c2.22-0.86,4.39-1.75,6.52-2.66c2.95-1.26,5.8-2.56,8.53-3.89c3.8-13.66,5.83-28.05,5.83-42.92
	c0-40.31-14.92-77.13-39.52-105.27c-0.03,6.14-0.27,12.48-0.72,19c18.06,24.96,27.82,54.86,27.82,86.26
	C687.55,434.08,684.65,450.76,679.09,466.43z"/>
<path class="st0" d="M637.14,298.35c-0.17-3.1-0.4-6.1-0.7-9.02c-26.82-20.29-60.22-32.34-96.44-32.34
	c-31.26,0-60.43,8.98-85.07,24.48c-0.76,5.05-1.32,10.43-1.65,16.09c25.05-18.27,55.12-28.15,86.72-28.15
	c36.23,0,70.47,12.98,97.41,36.73C637.36,303.51,637.28,300.9,637.14,298.35z"/>
<path class="st0" d="M384.2,453.39c4.56,2.74,9.57,5.38,15.01,7.91c-4.44-14.16-6.75-29.07-6.75-44.34
	c0-36.65,13.28-71.26,37.55-98.34c-0.08-2.71-0.12-5.38-0.12-8.02c0-3.34,0.07-6.63,0.2-9.86c-30.82,29.16-50.06,70.44-50.06,116.22
	C380.03,429.5,381.47,441.69,384.2,453.39z"/>
<path class="st0" d="M644.33,521.29c-20.05,20.05-44.84,33.61-71.86,39.65c-3.65,4.66-7.36,9.06-11.1,13.23
	c0.44,0.39,0.87,0.77,1.3,1.15c52.4-7.44,96.63-40.25,119.83-85.62c-5.61,2.05-11.46,3.98-17.53,5.77
	C659.15,504.72,652.25,513.38,644.33,521.29z"/>
<path class="st0" d="M528.89,574.14c-3.13-3.5-6.24-7.18-9.33-11.04c-31.66-4.36-60.9-18.81-83.89-41.8
	c-9.09-9.09-16.84-19.16-23.17-29.97c-6.1-2.1-11.95-4.35-17.51-6.74c23.65,50.64,73.04,86.84,131.35,91.77
	C527.18,575.64,528.04,574.89,528.89,574.14z"/>
<path class="st1" d="M481.68,504.07c-3.11-5.96-6.12-12.06-9.02-18.29c-2.01-0.33-4.02-0.67-6.01-1.03
	c-23.72-4.28-44.96-10.37-63.12-18.12c-1.02-0.43-2.02-0.87-3.01-1.31c-5.5-2.45-10.6-5.03-15.29-7.71
	c-1.49-0.85-2.94-1.71-4.34-2.58c-8.85-5.5-15.97-11.37-21.04-17.49c-2.81-3.39-4.95-6.81-6.4-10.24
	c-1.45-3.43-2.19-6.87-2.19-10.27c0-5.68,2.09-11.47,6.05-17.17c4.98-7.16,12.7-13.99,22.76-20.33c1.82-7.93,4.21-15.65,7.14-23.1
	c-12.62,6.16-23.28,13.05-31.61,20.48c-7.07,6.3-12.36,12.83-15.87,19.53c-3.51,6.7-5.26,13.56-5.26,20.6
	c0,7.88,2.29,15.68,6.82,23.25c4.53,7.57,11.3,14.91,20.22,21.76c8.34,6.4,18.39,12.28,29.84,17.54c0.57,0.26,1.15,0.52,1.73,0.77
	c5.41,2.43,11.12,4.72,17.09,6.87C431.19,494.76,455.5,500.5,481.68,504.07z"/>
<path class="st1" d="M545.18,508.3c12,0,23.93-0.45,35.66-1.31c3.28-5.73,6.45-11.61,9.52-17.64c-14.7,1.43-29.81,2.16-45.18,2.16
	c-15.39,0-30.51-0.72-45.23-2.16c3.06,6.02,6.23,11.9,9.51,17.63C521.15,507.85,533.09,508.3,545.18,508.3z"/>
<path class="st1" d="M749.84,395.12c-4.01-7.16-10.01-14.12-17.92-20.65c-10.63-8.79-24.36-16.64-40.44-23.33
	c3.09,7.13,5.68,14.51,7.75,22.12c13.75,7.1,24.47,15.01,31.36,23.37c2.78,3.38,4.9,6.77,6.33,10.18c1.43,3.41,2.17,6.83,2.17,10.22
	c0,3.97-1,7.97-2.94,11.94c-1.94,3.97-4.81,7.92-8.57,11.83c-7,7.28-17,14.23-29.29,20.48c-1.73,0.88-3.51,1.75-5.32,2.6
	c-2,0.94-4.04,1.85-6.15,2.75c-2.97,1.27-6.04,2.49-9.18,3.67c-16.02,6.02-34.1,10.87-53.94,14.45c-2,0.36-4.02,0.7-6.04,1.04
	c-2.91,6.25-5.93,12.36-9.03,18.31c14.47-1.96,28.45-4.58,41.63-7.85c5.9-1.46,11.61-3.05,17.13-4.75
	c5.94-1.83,11.66-3.78,17.12-5.86c0.95-0.36,1.9-0.72,2.84-1.09c14.95-5.9,27.92-12.71,38.35-20.19
	c9.96-7.14,17.52-14.83,22.57-22.79c5.05-7.97,7.61-16.2,7.61-24.55C755.88,409.63,753.85,402.28,749.84,395.12z"/>
<path class="st2" d="M559.28,252.28c10.43-9.23,20.6-15.76,30.01-19.13c4.73-1.69,9.2-2.55,13.36-2.55c3.14,0,6.1,0.49,8.85,1.5
	c5.34,1.94,10.06,5.88,14.07,11.56c6.85,9.73,11.41,24.04,13.58,41.88c0.25,2.09,0.47,4.22,0.66,6.4c0.17,2.04,0.32,4.11,0.44,6.23
	c0.19,3.53,0.28,7.14,0.31,10.81c0,0.55,0.02,1.08,0.02,1.63c0,16.4-1.64,34.19-4.89,53.06c-4.28,24.88-11.19,50.48-20.51,76.1
	c-5.81,15.96-12.33,31.3-19.5,45.88c-0.54,1.11-1.09,2.2-1.65,3.3c-3.04,6.05-6.19,11.96-9.44,17.73c-0.62,1.09-1.24,2.18-1.87,3.26
	c-0.25,0.44-0.5,0.88-0.75,1.31c-10.97,18.83-22.64,35.23-34.74,48.85c0.69,0.75,1.37,1.5,2.06,2.24c0.55,0.59,1.1,1.16,1.65,1.74
	c2.73,2.85,5.45,5.52,8.14,8c2.91-3.24,5.8-6.63,8.66-10.18c12.44-15.44,24.4-33.68,35.35-53.97c0.6-1.11,1.19-2.23,1.78-3.35
	c3.12-5.91,6.15-11.99,9.09-18.21c0.53-1.13,1.06-2.26,1.59-3.4c5.54-12,10.71-24.52,15.42-37.45
	c13.78-37.84,22.56-76.29,25.4-111.13c0.21-2.55,0.37-5.05,0.51-7.54c0.32-5.61,0.49-11.08,0.49-16.38c0-0.76-0.02-1.49-0.03-2.25
	c-0.01-1.21-0.01-2.42-0.04-3.61c-0.49-21.48-3.74-40.09-9.56-54.73c-3.5-8.8-7.83-16-12.93-21.59c-5.1-5.59-10.94-9.58-17.56-11.99
	c-4.58-1.67-9.42-2.5-14.51-2.5c-11.36,0-23.93,4.16-37.04,12.51c-6.06,3.86-12.17,8.57-18.26,14.02
	C551.4,244.03,555.35,248.01,559.28,252.28z"/>
<path class="st2" d="M535,580.73c-1.27-1.31-2.54-2.66-3.8-4.04c-0.07-0.08-0.15-0.16-0.22-0.24c-0.08,0.07-0.16,0.15-0.25,0.22
	c-1.37,1.2-2.73,2.36-4.09,3.47c-8.92,7.28-17.59,12.52-25.71,15.39c-4.68,1.66-9.1,2.5-13.23,2.5c-3.14,0-6.1-0.49-8.85-1.49
	c-3.73-1.36-7.15-3.67-10.22-6.85c-3.07-3.18-5.79-7.22-8.19-12.1c-2.94-6-5.29-13.19-7.03-21.32c-6.73-4.2-13.14-8.88-19.17-13.98
	c0.98,9.23,2.55,17.77,4.7,25.47c3.3,11.8,7.94,21.54,13.7,29.01c5.76,7.47,12.62,12.69,20.47,15.55c4.56,1.66,9.41,2.49,14.5,2.49
	c10.4,0,21.82-3.48,33.69-10.45c7.14-4.2,14.35-9.56,21.53-15.95C540.22,585.98,537.61,583.42,535,580.73z"/>
<path class="st3" d="M627.84,581.54c-2.23,3.8-4.71,6.98-7.43,9.52c-2.73,2.53-5.71,4.41-8.91,5.57c-2.74,1-5.7,1.49-8.84,1.49
	c-2.97,0-6.1-0.44-9.36-1.3c-9.58-2.53-19.98-8.54-30.77-17.56c-1.84-1.54-3.69-3.16-5.54-4.87c-3.3-3.03-6.63-6.34-9.97-9.91
	c-0.04-0.05-0.09-0.09-0.13-0.14c-0.58-0.63-1.17-1.26-1.75-1.9c-0.7-0.76-1.39-1.54-2.09-2.32
	c-12.08-13.61-23.71-29.97-34.65-48.75c-0.27-0.47-0.54-0.95-0.81-1.42c-0.63-1.08-1.25-2.17-1.87-3.26
	c-3.25-5.76-6.4-11.67-9.43-17.72c-0.55-1.1-1.1-2.2-1.64-3.3c-7.15-14.55-13.65-29.86-19.45-45.78
	c-9.32-25.62-16.22-51.22-20.51-76.1c-3.25-18.88-4.89-36.66-4.89-53.06c0-3.66,0.1-7.23,0.26-10.75c0.03-0.56,0.04-1.14,0.07-1.7
	c0.28-5.09,0.73-9.95,1.35-14.57c0.24-1.81,0.51-3.59,0.8-5.33c2.13-12.58,5.58-23.17,10.32-31.21c2.22-3.77,4.69-6.92,7.4-9.43
	c2.71-2.51,5.68-4.37,8.86-5.53c2.76-1.01,5.74-1.5,8.88-1.5c5.34,0,11.15,1.42,17.4,4.18c8.24,3.65,17.04,9.63,26.01,17.56
	c0.15-0.01,0.31-0.01,0.46-0.02c0.49-0.03,0.97-0.04,1.46-0.07c0.74-0.03,1.48-0.08,2.22-0.1c1.71-0.06,3.43-0.09,5.16-0.09
	c5.11,0,10.15,0.25,15.14,0.71c-0.03-0.03-0.06-0.06-0.09-0.1c-3.45-3.68-6.9-7.12-10.36-10.32c-5.76-5.33-11.52-9.97-17.21-13.86
	c-14.31-9.79-28-14.68-40.28-14.68c-5.08,0-9.93,0.83-14.53,2.5c-6.95,2.53-13.16,6.96-18.52,13.18
	c-5.36,6.22-9.84,14.24-13.28,23.9c-4.24,11.92-6.84,26.03-7.85,41.71c-0.05,0.84-0.1,1.7-0.14,2.55
	c-0.22,4.18-0.34,8.46-0.34,12.84c0,1.56,0.02,3.14,0.05,4.73c0.68,38.68,9.67,84.42,26.37,130.31
	c4.66,12.82,9.82,25.31,15.38,37.35c0.52,1.13,1.04,2.27,1.57,3.4c2.92,6.2,5.96,12.27,9.08,18.19c0.59,1.12,1.19,2.24,1.79,3.36
	c7.56,14.02,15.66,27.18,24.16,39.17c4.15,5.86,8.36,11.38,12.6,16.55c2.39,2.92,4.79,5.72,7.2,8.42c0.7,0.78,1.39,1.55,2.09,2.31
	c0.78,0.85,1.56,1.68,2.34,2.51c0.53,0.57,1.07,1.14,1.61,1.7c2.63,2.72,5.27,5.3,7.91,7.74c9.14,8.46,18.27,15.19,27.16,19.97
	c10.8,5.81,20.93,8.68,30.29,8.68c5.1,0,9.98-0.85,14.65-2.55c7.4-2.7,13.95-7.52,19.52-14.36c5.57-6.84,10.15-15.72,13.53-26.44
	c3.55-11.24,5.73-24.28,6.59-38.65c-5.78,5.78-11.99,11.14-18.57,16.02C636.23,562.14,632.72,573.21,627.84,581.54z"/>
<path class="st4" d="M540,167.54c-137.71,0-249.34,111.64-249.34,249.34c0,122.98,201.76,392.38,249.34,454.28
	c47.59-61.9,249.34-331.3,249.34-454.28C789.34,279.18,677.71,167.54,540,167.54z"/>
<g>
	<path class="st3" d="M294.4,511.46c-9.51,3.67-19.3,6.79-28.44,11.24c-8.69,4.23-16.32,4.52-23.87-1.78c-2.39-2-4.14-1.32-6,1.08
		c-8.12,10.48-16.4,20.83-24.61,31.24c-0.67,0.85-1.96,1.62-1.32,2.91c0.52,1.05,1.81,0.71,2.78,0.82
		c14.44,1.56,28.88,3.11,43.31,4.65c5.2,0.34,5.43,0.11,4.94-5.1c-0.11-1.14-0.24-2.28-0.45-3.41c-0.62-3.37,0.46-5.33,3.92-6.63
		c11.45-4.32,22.79-8.91,34.12-13.55c2.45-1,4.28-1.66,5.63-2.2c-2.96-6.74-5.72-13.32-8.26-19.72
		C295.56,511.1,294.97,511.24,294.4,511.46z"/>
	<path class="st2" d="M868.61,552.24c-8.13-10.48-16.34-20.9-24.45-31.39c-1.51-1.95-2.97-2.51-5.18-1.16
		c-2.61,1.59-5.46,2.81-8,4.5c-2.73,1.81-5.23,1.81-8.24,0.59c-11.94-4.84-23.97-9.45-35.97-14.14c-0.82-0.32-1.62-0.65-2.46-0.81
		c-2.52,6.39-5.26,12.96-8.2,19.68c0.3,0.14,0.61,0.27,0.93,0.4c11.16,4.37,22.27,8.9,33.4,13.35c9.1,3.64,9.1,3.63,8.85,13.15
		c-0.11,4.05,0.56,4.58,5.14,4.1c14.2-1.49,28.39-2.97,42.59-4.46c0.98-0.1,2.24,0.21,2.78-0.84
		C870.47,553.93,869.26,553.08,868.61,552.24z"/>
	<path class="st1" d="M552.93,149.3c0.21-0.84,0.3-1.82,0.29-2.95c-0.11-14.52,0.25-29.03,0.4-43.55c0.09-8.34-0.72-7.13,7.43-8.84
		c4.63-0.97,4.69-0.98,2.47-5.34c-6.13-12.03-12.29-24.05-18.47-36.06c-0.5-0.98-0.72-2.53-2-2.55c-1.55-0.03-1.71,1.69-2.26,2.75
		c-5.85,11.32-11.65,22.66-17.44,34.01c-3.19,6.26-3.21,6.48,3.81,7.55c3.91,0.6,5.27,2.16,5.23,6.2
		c-0.19,15.66-0.26,31.33,0.44,46.99c0.02,0.52,0.01,1.05,0.02,1.58c2.38-0.06,4.76-0.1,7.14-0.1
		C544.33,148.99,548.64,149.09,552.93,149.3z"/>
</g>
<path class="st0" d="M756.31,292.78c2,3.48,3.92,7.01,5.76,10.6C760.23,299.79,758.31,296.26,756.31,292.78z"/>
<path class="st0" d="M785.45,372.75c2.19,12.28,3.49,24.87,3.81,37.7C788.94,397.62,787.64,385.03,785.45,372.75z"/>
<path class="st0" d="M720.39,244.76c0.13,0.13,0.25,0.27,0.38,0.4C720.65,245.03,720.52,244.89,720.39,244.76z"/>
<path class="st0" d="M789.34,416.89c0-2.15-0.03-4.3-0.08-6.44C789.32,412.59,789.34,414.74,789.34,416.89L789.34,416.89z"/>
<path class="st0" d="M301.46,344.09c0.94-3.09,1.95-6.16,3.01-9.2C303.41,337.93,302.41,341,301.46,344.09z"/>
<path class="st0" d="M779.89,348.63c1.68,5.92,3.15,11.92,4.39,18.01C783.03,360.55,781.57,354.54,779.89,348.63z"/>
<path class="st0" d="M772.05,325.46c2.98,7.55,5.6,15.28,7.84,23.17C777.65,340.74,775.03,333.01,772.05,325.46z"/>
<path class="st0" d="M736.16,262.95c4.94,6.28,9.58,12.8,13.9,19.55C745.74,275.75,741.1,269.23,736.16,262.95z"/>
<path class="st0" d="M731.81,257.58c1.47,1.77,2.93,3.56,4.35,5.37C734.74,261.13,733.28,259.35,731.81,257.58z"/>
<path class="st0" d="M540,188.43c31.91,0,62.79,6.42,91.77,19.09c28,12.24,52.96,29.71,74.16,51.93l0.08,0.09l0.27,0.29
	c3.46,3.65,6.88,7.49,10.15,11.43c1.51,1.82,2.82,3.44,4.01,4.94c4.53,5.77,8.83,11.82,12.79,17.98c1.98,3.09,3.91,6.27,5.75,9.46
	c1.84,3.19,3.62,6.47,5.29,9.75c3.38,6.59,6.46,13.42,9.18,20.31c2.74,6.95,5.16,14.11,7.2,21.29c1.55,5.44,2.9,11.01,4.04,16.56
	c0.38,1.85,0.74,3.74,1.08,5.62c2.03,11.38,3.21,23.05,3.51,34.69c0.05,1.97,0.08,3.96,0.08,5.93c0,6.39-0.67,13.56-1.99,21.33
	c-0.5,2.92-1.1,5.98-1.78,9.09c-1.36,6.18-3.11,12.8-5.2,19.68c-0.69,2.27-1.43,4.61-2.2,6.95c-0.76,2.33-1.58,4.72-2.42,7.12
	c-0.84,2.39-1.72,4.84-2.63,7.28c-2.25,6.04-4.76,12.38-7.46,18.84c-0.54,1.28-1.08,2.57-1.64,3.87c-1.09,2.55-2.24,5.18-3.41,7.82
	c-1.16,2.6-2.36,5.27-3.58,7.93c-0.61,1.33-1.23,2.66-1.85,4c-3.07,6.57-6.38,13.4-9.84,20.32c-2.04,4.06-4.17,8.23-6.34,12.41
	c-1.42,2.74-2.9,5.55-4.39,8.34c-1.47,2.77-2.99,5.59-4.51,8.39c-5.18,9.54-10.76,19.5-16.59,29.59c-1.62,2.81-3.29,5.66-4.94,8.49
	c-1.66,2.83-3.33,5.66-5.02,8.48c-1.68,2.83-3.38,5.65-5.08,8.47c-1.7,2.82-3.42,5.64-5.14,8.45c-5.84,9.54-12,19.4-18.32,29.31
	c-1.76,2.76-3.53,5.52-5.3,8.26c-20.93,32.48-44.26,66.71-69.34,101.76c-1.57,2.2-3.13,4.37-4.67,6.5
	c-5.09,7.08-10.29,14.23-15.45,21.26c-1.4,1.91-2.77,3.78-4.12,5.61c-1.35,1.83-2.68,3.63-3.98,5.39
	c-4.36,5.89-8.44,11.35-12.16,16.29c-3.72-4.95-7.8-10.41-12.16-16.29c-1.3-1.76-2.63-3.55-3.98-5.39c-1.35-1.83-2.73-3.7-4.12-5.61
	c-4.39-5.98-8.82-12.06-13.15-18.07c-2.28-3.16-4.6-6.39-6.96-9.69c-3.22-4.5-6.46-9.06-9.63-13.53c-2.45-3.47-4.93-6.99-7.44-10.57
	c-1.67-2.39-3.36-4.8-5.05-7.24c-12.76-18.35-25.08-36.56-36.61-54.1c-2.68-4.07-5.36-8.18-7.97-12.21
	c-2.68-4.13-5.35-8.29-7.95-12.37c-0.88-1.38-1.76-2.77-2.64-4.15c-4.48-7.06-8.88-14.1-13.09-20.94c-0.86-1.4-1.73-2.81-2.59-4.22
	c-5.26-8.6-10.39-17.15-15.24-25.41c-2.51-4.27-4.99-8.55-7.38-12.73c-4.94-8.62-9.7-17.15-14.15-25.35
	c-1.52-2.8-3.03-5.62-4.51-8.39c-11.57-21.76-21.46-42.22-29.4-60.81c-16.8-39.31-25.32-70.99-25.32-94.16
	c0-22.8,3.34-45.33,9.94-66.97c0.84-2.76,1.77-5.61,2.76-8.46c2.87-8.24,6.2-16.31,9.9-23.99c3.2-6.63,6.76-13.19,10.59-19.49
	c1.9-3.13,3.91-6.26,5.97-9.31c3.08-4.55,6.36-9.05,9.75-13.37c21.01-26.74,48.17-48.85,78.52-63.93
	C469.9,196.45,504.19,188.43,540,188.43 M540,168.43c-79.61,0-150.51,37.31-196.16,95.4c-3.7,4.71-7.24,9.56-10.6,14.53
	c-2.24,3.32-4.4,6.69-6.49,10.12c-4.16,6.85-8.01,13.93-11.51,21.19c-4.07,8.44-7.66,17.16-10.77,26.1
	c-1.06,3.04-2.06,6.11-3.01,9.2c-7.02,23.03-10.81,47.47-10.81,72.8c0,27.86,10.36,63.24,26.93,102.02
	c8.57,20.06,18.81,41.03,30.13,62.33c1.51,2.84,3.04,5.69,4.59,8.54c4.64,8.56,9.45,17.15,14.38,25.76c2.47,4.3,4.96,8.6,7.49,12.9
	c5.05,8.6,10.2,17.19,15.43,25.73c0.87,1.42,1.74,2.84,2.62,4.27c4.37,7.1,8.79,14.16,13.23,21.17c0.89,1.4,1.78,2.8,2.67,4.19
	c2.67,4.19,5.35,8.35,8.03,12.49c2.68,4.14,5.36,8.25,8.04,12.32c12.5,19.03,24.96,37.36,36.9,54.54c1.71,2.45,3.4,4.88,5.09,7.29
	c2.53,3.61,5.02,7.16,7.49,10.65c3.29,4.65,6.52,9.2,9.69,13.63c2.38,3.32,4.72,6.57,7.01,9.75c4.59,6.36,9.02,12.44,13.24,18.2
	c1.41,1.92,2.79,3.8,4.15,5.65c1.36,1.85,2.7,3.65,4.01,5.42c11.8,15.93,21.54,28.73,28.23,37.44c6.69-8.7,16.43-21.51,28.23-37.44
	c1.31-1.77,2.65-3.58,4.01-5.42c1.36-1.85,2.75-3.73,4.15-5.65c4.93-6.71,10.13-13.87,15.55-21.4c1.55-2.15,3.12-4.34,4.7-6.55
	c21.39-29.88,45.8-65.18,69.89-102.57c1.78-2.77,3.57-5.55,5.35-8.34c6.23-9.77,12.42-19.67,18.52-29.63
	c1.74-2.85,3.48-5.7,5.2-8.55c1.72-2.86,3.44-5.72,5.14-8.58c1.7-2.86,3.4-5.73,5.08-8.59c1.68-2.87,3.35-5.73,5.01-8.6
	c5.8-10.04,11.44-20.08,16.85-30.06c1.55-2.85,3.08-5.7,4.59-8.54c1.51-2.84,3-5.68,4.47-8.5c2.21-4.24,4.36-8.47,6.47-12.67
	c3.51-7.01,6.88-13.95,10.09-20.82c0.64-1.37,1.28-2.74,1.9-4.11c1.26-2.73,2.48-5.45,3.69-8.16c1.2-2.71,2.37-5.4,3.52-8.07
	c0.57-1.34,1.14-2.67,1.69-4c2.78-6.64,5.38-13.18,7.76-19.6c0.95-2.57,1.87-5.11,2.76-7.63c0.88-2.52,1.73-5.03,2.55-7.5
	c0.81-2.48,1.59-4.93,2.33-7.37c2.22-7.3,4.1-14.37,5.6-21.19c0.75-3.41,1.41-6.76,1.97-10.04c1.49-8.74,2.28-17,2.28-24.69
	c0-2.15-0.03-4.3-0.08-6.44c-0.33-12.83-1.62-25.42-3.81-37.7c-0.37-2.05-0.76-4.08-1.17-6.11c-1.25-6.09-2.71-12.09-4.39-18.01
	c-2.24-7.89-4.86-15.62-7.84-23.17c-2.98-7.55-6.31-14.92-9.98-22.09c-1.84-3.58-3.76-7.12-5.76-10.6c-2-3.48-4.08-6.91-6.25-10.28
	c-4.32-6.74-8.96-13.27-13.9-19.55c-1.42-1.81-2.88-3.6-4.35-5.37c-3.54-4.26-7.22-8.4-11.04-12.42c-0.13-0.13-0.25-0.27-0.38-0.4
	C674.99,198.07,610.96,168.43,540,168.43L540,168.43z"/>
<g>
	<path class="st0" d="M275.84,944.32c-3.06-5.89-7.31-10.34-12.76-13.34c-5.44-3-11.74-4.5-18.88-4.5c-7.82,0-14.8,1.76-20.92,5.27
		c-6.12,3.51-10.92,8.5-14.37,14.96c-3.46,6.46-5.19,13.94-5.19,22.44s1.73,16.01,5.19,22.53c3.46,6.52,8.25,11.53,14.37,15.04
		c6.12,3.51,13.1,5.27,20.92,5.27c10.55,0,19.11-2.95,25.68-8.84c6.58-5.89,10.6-13.88,12.08-23.97h-44.4V963.7h65.15v15.13
		c-1.25,9.18-4.51,17.62-9.78,25.33c-5.27,7.71-12.14,13.85-20.58,18.44c-8.45,4.59-17.83,6.88-28.15,6.88
		c-11.11,0-21.26-2.58-30.45-7.73c-9.19-5.16-16.47-12.33-21.86-21.5c-5.39-9.18-8.08-19.55-8.08-31.11
		c0-11.56,2.69-21.93,8.08-31.11c5.38-9.18,12.7-16.35,21.94-21.5c9.24-5.16,19.36-7.73,30.36-7.73c12.59,0,23.78,3.09,33.59,9.26
		c9.81,6.18,16.92,14.93,21.35,26.26H275.84z"/>
	<path class="st0" d="M402.74,988.86h-71.61c0.57,7.48,3.34,13.49,8.33,18.02c4.99,4.53,11.11,6.8,18.37,6.8
		c10.43,0,17.8-4.36,22.11-13.09h20.92c-2.84,8.61-7.97,15.67-15.39,21.17c-7.43,5.5-16.64,8.25-27.64,8.25
		c-8.96,0-16.98-2.01-24.07-6.04c-7.09-4.02-12.65-9.69-16.67-17c-4.03-7.31-6.04-15.78-6.04-25.42c0-9.63,1.96-18.11,5.87-25.42
		c3.91-7.31,9.41-12.95,16.5-16.92c7.09-3.97,15.22-5.95,24.41-5.95c8.84,0,16.73,1.93,23.64,5.78c6.92,3.85,12.3,9.26,16.16,16.24
		c3.85,6.97,5.78,14.99,5.78,24.05C403.42,982.85,403.19,986.03,402.74,988.86z M383.18,973.22c-0.11-7.14-2.67-12.86-7.65-17.17
		c-4.99-4.31-11.17-6.46-18.54-6.46c-6.69,0-12.42,2.12-17.18,6.38c-4.76,4.25-7.6,10-8.5,17.25H383.18z"/>
	<path class="st0" d="M434.88,1023.96c-7.14-4.02-12.76-9.69-16.84-17c-4.08-7.31-6.12-15.78-6.12-25.42
		c0-9.52,2.1-17.96,6.29-25.33c4.19-7.37,9.92-13.03,17.18-17c7.26-3.97,15.36-5.95,24.32-5.95c8.96,0,17.07,1.98,24.32,5.95
		c7.26,3.97,12.98,9.63,17.18,17c4.19,7.37,6.29,15.81,6.29,25.33c0,9.52-2.16,17.96-6.46,25.33c-4.31,7.37-10.18,13.06-17.61,17.08
		c-7.43,4.02-15.62,6.04-24.58,6.04C450.02,1030,442.03,1027.99,434.88,1023.96z M472.9,1009.6c4.36-2.38,7.91-5.95,10.63-10.71
		c2.72-4.76,4.08-10.54,4.08-17.34s-1.3-12.55-3.91-17.25c-2.61-4.7-6.07-8.25-10.38-10.62c-4.31-2.38-8.96-3.57-13.95-3.57
		c-4.99,0-9.61,1.19-13.86,3.57s-7.63,5.92-10.12,10.62c-2.5,4.7-3.74,10.46-3.74,17.25c0,10.09,2.58,17.88,7.74,23.38
		c5.16,5.5,11.65,8.25,19.48,8.25C463.86,1013.17,468.53,1011.98,472.9,1009.6z"/>
	<path class="st0" d="M600.89,962.51c-2.84,5.33-7.37,9.66-13.61,13c-6.24,3.34-14.23,5.01-23.98,5.01h-21.43v47.94h-19.39V910.32
		h40.82c9.07,0,16.75,1.56,23.05,4.68c6.29,3.12,11,7.34,14.12,12.67c3.12,5.33,4.68,11.28,4.68,17.85
		C605.15,951.52,603.73,957.18,600.89,962.51z M579.8,959.71c3.63-3.34,5.44-8.08,5.44-14.2c0-12.92-7.31-19.38-21.94-19.38h-21.43
		v38.59h21.43C570.67,964.72,576.17,963.05,579.8,959.71z"/>
	<path class="st0" d="M636.1,1023.96c-7.14-4.02-12.76-9.69-16.84-17c-4.08-7.31-6.12-15.78-6.12-25.42c0-9.52,2.1-17.96,6.29-25.33
		c4.19-7.37,9.92-13.03,17.18-17c7.26-3.97,15.36-5.95,24.32-5.95c8.96,0,17.07,1.98,24.32,5.95c7.26,3.97,12.98,9.63,17.18,17
		c4.19,7.37,6.29,15.81,6.29,25.33c0,9.52-2.16,17.96-6.46,25.33c-4.31,7.37-10.18,13.06-17.6,17.08
		c-7.43,4.02-15.62,6.04-24.58,6.04C651.24,1030,643.25,1027.99,636.1,1023.96z M674.12,1009.6c4.36-2.38,7.91-5.95,10.63-10.71
		c2.72-4.76,4.08-10.54,4.08-17.34s-1.31-12.55-3.91-17.25c-2.61-4.7-6.07-8.25-10.38-10.62c-4.31-2.38-8.96-3.57-13.95-3.57
		c-4.99,0-9.61,1.19-13.86,3.57s-7.63,5.92-10.12,10.62c-2.5,4.7-3.74,10.46-3.74,17.25c0,10.09,2.58,17.88,7.74,23.38
		c5.16,5.5,11.65,8.25,19.48,8.25C665.08,1013.17,669.75,1011.98,674.12,1009.6z"/>
	<path class="st0" d="M737.9,1026c-5.84-2.66-10.46-6.29-13.86-10.88c-3.4-4.59-5.22-9.72-5.44-15.39h20.07
		c0.34,3.97,2.24,7.28,5.7,9.95c3.46,2.66,7.79,4,13.01,4c5.44,0,9.67-1.05,12.67-3.14c3-2.1,4.51-4.79,4.51-8.08
		c0-3.51-1.67-6.12-5.02-7.82c-3.35-1.7-8.65-3.57-15.9-5.61c-7.03-1.93-12.76-3.79-17.18-5.61c-4.42-1.81-8.25-4.59-11.48-8.33
		c-3.23-3.74-4.85-8.67-4.85-14.79c0-4.99,1.47-9.55,4.42-13.69c2.95-4.14,7.17-7.39,12.67-9.77c5.5-2.38,11.82-3.57,18.97-3.57
		c10.66,0,19.25,2.69,25.77,8.08c6.52,5.38,10.01,12.72,10.46,22.01h-19.39c-0.34-4.19-2.04-7.54-5.1-10.03
		c-3.06-2.49-7.2-3.74-12.42-3.74c-5.1,0-9.01,0.96-11.74,2.89c-2.72,1.93-4.08,4.48-4.08,7.65c0,2.49,0.91,4.59,2.72,6.29
		c1.81,1.7,4.02,3.03,6.63,4c2.61,0.96,6.46,2.18,11.57,3.65c6.8,1.81,12.39,3.66,16.75,5.53c4.36,1.87,8.14,4.62,11.31,8.25
		c3.17,3.63,4.82,8.44,4.93,14.45c0,5.33-1.48,10.09-4.42,14.28c-2.95,4.19-7.12,7.48-12.5,9.86c-5.39,2.38-11.71,3.57-18.97,3.57
		C750.35,1030,743.74,1028.67,737.9,1026z"/>
	<path class="st0" d="M895.5,988.86h-71.61c0.57,7.48,3.34,13.49,8.33,18.02c4.99,4.53,11.11,6.8,18.37,6.8
		c10.43,0,17.8-4.36,22.11-13.09h20.92c-2.84,8.61-7.97,15.67-15.39,21.17c-7.43,5.5-16.64,8.25-27.64,8.25
		c-8.96,0-16.98-2.01-24.07-6.04c-7.09-4.02-12.65-9.69-16.67-17c-4.03-7.31-6.04-15.78-6.04-25.42c0-9.63,1.96-18.11,5.87-25.42
		c3.91-7.31,9.41-12.95,16.5-16.92c7.09-3.97,15.22-5.95,24.41-5.95c8.84,0,16.73,1.93,23.64,5.78c6.92,3.85,12.3,9.26,16.16,16.24
		c3.85,6.97,5.78,14.99,5.78,24.05C896.18,982.85,895.95,986.03,895.5,988.86z M875.94,973.22c-0.11-7.14-2.67-12.86-7.65-17.17
		c-4.99-4.31-11.17-6.46-18.54-6.46c-6.69,0-12.42,2.12-17.18,6.38c-4.76,4.25-7.6,10-8.5,17.25H875.94z"/>
</g>
</svg>
