<?xml version="1.0" encoding="UTF-8"?>
<svg id="Layer_1" data-name="Layer 1" xmlns="http://www.w3.org/2000/svg" viewBox="0 0 1080 1080">
  <defs>
    <style>
      .cls-1 {
        fill: #7ac943;
      }

      .cls-2 {
        fill: #3fa9f5;
      }

      .cls-3 {
        fill: #ff1d25;
      }

      .cls-4 {
        fill: none;
      }

      .cls-5 {
        fill: #123b4a;
      }
    </style>
  </defs>
  <path class="cls-5" d="m679.09,466.43c2.22-.86,4.39-1.75,6.52-2.66,2.95-1.26,5.8-2.56,8.53-3.89,3.8-13.66,5.83-28.05,5.83-42.92,0-40.31-14.92-77.13-39.52-105.27-.03,6.14-.27,12.48-.72,19,18.06,24.96,27.82,54.86,27.82,86.26,0,17.12-2.9,33.8-8.46,49.47Z"/>
  <path class="cls-5" d="m637.14,298.35c-.17-3.1-.4-6.1-.7-9.02-26.82-20.29-60.22-32.34-96.44-32.34-31.26,0-60.43,8.98-85.07,24.48-.76,5.05-1.32,10.43-1.65,16.09,25.05-18.27,55.12-28.15,86.72-28.15,36.23,0,70.47,12.98,97.41,36.73-.05-2.63-.13-5.24-.27-7.79Z"/>
  <path class="cls-5" d="m384.2,453.39c4.56,2.74,9.57,5.38,15.01,7.91-4.44-14.16-6.75-29.07-6.75-44.34,0-36.65,13.28-71.26,37.55-98.34-.08-2.71-.12-5.38-.12-8.02,0-3.34.07-6.63.2-9.86-30.82,29.16-50.06,70.44-50.06,116.22,0,12.53,1.44,24.73,4.17,36.43Z"/>
  <path class="cls-5" d="m644.33,521.29c-20.05,20.05-44.84,33.61-71.86,39.65-3.65,4.66-7.36,9.06-11.1,13.23.44.39.87.77,1.3,1.15,52.4-7.44,96.63-40.25,119.83-85.62-5.61,2.05-11.46,3.98-17.53,5.78-5.83,9.24-12.73,17.9-20.65,25.82Z"/>
  <path class="cls-5" d="m528.89,574.14c-3.13-3.5-6.24-7.18-9.33-11.04-31.66-4.36-60.9-18.81-83.89-41.8-9.09-9.09-16.84-19.16-23.17-29.97-6.1-2.1-11.95-4.35-17.51-6.74,23.65,50.64,73.04,86.84,131.35,91.77.85-.71,1.7-1.46,2.55-2.21Z"/>
  <path class="cls-2" d="m481.68,504.07c-3.11-5.96-6.12-12.06-9.02-18.29-2.01-.33-4.02-.67-6.01-1.03-23.72-4.28-44.96-10.37-63.12-18.12-1.02-.43-2.02-.87-3.01-1.31-5.5-2.45-10.6-5.03-15.29-7.71-1.49-.85-2.94-1.71-4.34-2.58-8.85-5.5-15.97-11.37-21.04-17.49-2.81-3.39-4.95-6.81-6.4-10.24-1.45-3.43-2.19-6.87-2.19-10.27,0-5.68,2.09-11.47,6.05-17.17,4.98-7.16,12.7-13.99,22.76-20.33,1.82-7.93,4.21-15.65,7.14-23.1-12.62,6.16-23.28,13.05-31.61,20.48-7.07,6.3-12.36,12.83-15.87,19.53-3.51,6.7-5.26,13.56-5.26,20.6,0,7.88,2.29,15.68,6.82,23.25,4.53,7.57,11.3,14.91,20.22,21.76,8.34,6.4,18.39,12.28,29.84,17.54.57.26,1.15.52,1.73.77,5.41,2.43,11.12,4.72,17.09,6.87,21.01,7.54,45.31,13.28,71.5,16.85Z"/>
  <path class="cls-2" d="m545.18,508.3c12,0,23.93-.45,35.66-1.31,3.28-5.73,6.45-11.61,9.52-17.64-14.7,1.43-29.81,2.16-45.18,2.16-15.39,0-30.51-.72-45.23-2.16,3.06,6.02,6.23,11.9,9.51,17.63,11.69.87,23.63,1.32,35.72,1.32Z"/>
  <path class="cls-2" d="m749.84,395.12c-4.01-7.16-10.01-14.12-17.92-20.65-10.63-8.79-24.36-16.64-40.44-23.33,3.09,7.13,5.68,14.51,7.75,22.12,13.75,7.1,24.47,15.01,31.36,23.37,2.78,3.38,4.9,6.77,6.33,10.18,1.43,3.41,2.17,6.83,2.17,10.22,0,3.97-1,7.97-2.94,11.94-1.94,3.97-4.81,7.92-8.57,11.83-7,7.28-17,14.23-29.29,20.48-1.73.88-3.5,1.75-5.32,2.6-2,.94-4.04,1.85-6.15,2.75-2.97,1.27-6.04,2.49-9.18,3.67-16.02,6.02-34.1,10.87-53.94,14.45-2,.36-4.02.7-6.04,1.04-2.91,6.25-5.93,12.36-9.03,18.31,14.47-1.96,28.45-4.58,41.63-7.85,5.9-1.46,11.61-3.05,17.13-4.75,5.94-1.83,11.66-3.78,17.12-5.86.95-.36,1.9-.72,2.84-1.09,14.95-5.9,27.92-12.71,38.35-20.19,9.96-7.14,17.52-14.83,22.57-22.79,5.05-7.97,7.61-16.2,7.61-24.55,0-7.39-2.04-14.74-6.05-21.91Z"/>
  <path class="cls-1" d="m559.28,252.28c10.43-9.23,20.6-15.76,30.01-19.13,4.73-1.69,9.2-2.55,13.36-2.55,3.14,0,6.1.49,8.85,1.5,5.34,1.94,10.06,5.88,14.07,11.56,6.85,9.73,11.41,24.04,13.58,41.88.25,2.09.47,4.22.66,6.4.17,2.04.32,4.11.44,6.23.19,3.53.28,7.14.31,10.81,0,.55.02,1.08.02,1.63,0,16.4-1.64,34.19-4.89,53.06-4.28,24.88-11.19,50.48-20.51,76.1-5.81,15.96-12.33,31.3-19.5,45.88-.54,1.11-1.09,2.2-1.65,3.3-3.04,6.05-6.19,11.96-9.44,17.73-.62,1.09-1.24,2.18-1.87,3.26-.25.44-.5.88-.75,1.31-10.97,18.83-22.64,35.23-34.74,48.85.69.75,1.37,1.5,2.06,2.24.55.59,1.1,1.16,1.65,1.74,2.73,2.85,5.45,5.52,8.14,8,2.91-3.24,5.8-6.63,8.66-10.18,12.44-15.44,24.4-33.68,35.35-53.97.6-1.11,1.19-2.23,1.78-3.35,3.12-5.91,6.15-11.99,9.09-18.21.53-1.13,1.06-2.26,1.58-3.4,5.54-12,10.71-24.52,15.42-37.45,13.78-37.84,22.56-76.29,25.4-111.13.21-2.55.37-5.05.51-7.54.32-5.61.49-11.08.49-16.38,0-.76-.02-1.49-.03-2.25-.01-1.21-.01-2.42-.04-3.61-.49-21.48-3.74-40.09-9.56-54.73-3.5-8.8-7.83-16-12.93-21.59-5.1-5.59-10.94-9.58-17.56-11.99-4.58-1.67-9.42-2.5-14.51-2.5-11.36,0-23.93,4.16-37.04,12.51-6.06,3.86-12.17,8.57-18.26,14.02,3.96,3.67,7.91,7.66,11.84,11.93Z"/>
  <path class="cls-1" d="m535,580.73c-1.27-1.31-2.54-2.66-3.8-4.04-.07-.08-.15-.16-.22-.24-.08.07-.16.15-.25.22-1.37,1.2-2.73,2.36-4.09,3.47-8.92,7.28-17.59,12.52-25.71,15.39-4.68,1.66-9.1,2.5-13.23,2.5-3.14,0-6.1-.49-8.85-1.49-3.73-1.36-7.15-3.67-10.22-6.85-3.07-3.18-5.79-7.22-8.19-12.1-2.94-6-5.29-13.19-7.03-21.32-6.73-4.2-13.14-8.88-19.17-13.98.98,9.23,2.55,17.77,4.7,25.47,3.3,11.8,7.94,21.54,13.7,29.01,5.76,7.47,12.62,12.69,20.47,15.55,4.56,1.66,9.41,2.49,14.5,2.49,10.4,0,21.82-3.48,33.69-10.45,7.14-4.19,14.35-9.56,21.53-15.95-2.61-2.43-5.23-4.98-7.83-7.67Z"/>
  <path class="cls-3" d="m627.84,581.54c-2.23,3.8-4.71,6.98-7.43,9.52-2.73,2.53-5.71,4.41-8.91,5.57-2.74,1-5.7,1.49-8.84,1.49-2.97,0-6.1-.44-9.36-1.3-9.58-2.53-19.98-8.54-30.77-17.56-1.84-1.54-3.69-3.16-5.54-4.87-3.3-3.03-6.63-6.34-9.97-9.91-.04-.05-.09-.09-.13-.14-.58-.63-1.17-1.26-1.75-1.9-.7-.76-1.39-1.54-2.09-2.32-12.08-13.61-23.71-29.97-34.65-48.75-.27-.47-.54-.95-.81-1.42-.63-1.08-1.25-2.17-1.87-3.26-3.25-5.76-6.4-11.67-9.43-17.72-.55-1.1-1.1-2.2-1.64-3.3-7.15-14.55-13.65-29.86-19.45-45.78-9.32-25.62-16.22-51.22-20.51-76.1-3.25-18.88-4.89-36.66-4.89-53.06,0-3.66.1-7.23.26-10.75.03-.56.04-1.14.07-1.7.28-5.09.73-9.95,1.35-14.57.24-1.81.51-3.59.8-5.33,2.13-12.58,5.58-23.17,10.32-31.21,2.22-3.77,4.69-6.92,7.4-9.43,2.71-2.51,5.68-4.37,8.86-5.53,2.76-1.01,5.74-1.5,8.88-1.5,5.34,0,11.15,1.42,17.4,4.18,8.24,3.65,17.04,9.63,26.01,17.56.15,0,.31-.01.46-.02.49-.03.97-.04,1.46-.07.74-.03,1.48-.08,2.22-.1,1.71-.06,3.43-.09,5.16-.09,5.11,0,10.15.25,15.14.71-.03-.03-.06-.06-.09-.1-3.45-3.68-6.9-7.12-10.36-10.32-5.76-5.33-11.52-9.97-17.21-13.86-14.31-9.79-28-14.68-40.28-14.68-5.08,0-9.93.83-14.53,2.5-6.95,2.53-13.16,6.96-18.52,13.18-5.36,6.22-9.84,14.24-13.28,23.9-4.24,11.92-6.84,26.03-7.85,41.71-.05.84-.1,1.7-.14,2.55-.22,4.18-.34,8.46-.34,12.84,0,1.56.02,3.14.05,4.73.68,38.68,9.67,84.42,26.37,130.31,4.66,12.82,9.82,25.31,15.38,37.35.52,1.13,1.04,2.27,1.57,3.4,2.92,6.2,5.96,12.27,9.08,18.19.59,1.12,1.19,2.24,1.79,3.36,7.56,14.02,15.66,27.18,24.16,39.17,4.15,5.86,8.36,11.38,12.6,16.55,2.39,2.92,4.79,5.72,7.2,8.42.7.78,1.39,1.55,2.09,2.31.78.85,1.56,1.68,2.34,2.51.54.57,1.07,1.14,1.61,1.7,2.63,2.72,5.27,5.3,7.91,7.74,9.14,8.46,18.27,15.19,27.16,19.97,10.8,5.81,20.93,8.68,30.29,8.68,5.1,0,9.98-.85,14.65-2.55,7.4-2.7,13.95-7.52,19.52-14.36,5.57-6.84,10.15-15.72,13.53-26.44,3.55-11.24,5.73-24.28,6.59-38.65-5.78,5.78-11.99,11.14-18.57,16.02-2.09,13.17-5.6,24.23-10.48,32.57Z"/>
  <path class="cls-4" d="m540,167.54c-137.71,0-249.34,111.64-249.34,249.34,0,122.98,201.76,392.38,249.34,454.28,47.59-61.9,249.34-331.3,249.34-454.28,0-137.71-111.64-249.34-249.34-249.34Z"/>
  <g>
    <path class="cls-3" d="m294.4,511.46c-9.51,3.67-19.3,6.79-28.44,11.24-8.69,4.23-16.32,4.52-23.87-1.78-2.39-2-4.14-1.32-6,1.08-8.12,10.48-16.4,20.83-24.61,31.24-.67.85-1.96,1.62-1.32,2.91.52,1.05,1.81.71,2.78.82,14.44,1.56,28.88,3.11,43.31,4.65,5.2.34,5.43.11,4.94-5.1-.11-1.14-.24-2.28-.45-3.41-.62-3.37.46-5.33,3.92-6.63,11.45-4.32,22.79-8.91,34.12-13.55,2.45-1,4.28-1.66,5.63-2.2-2.96-6.74-5.72-13.32-8.26-19.72-.6.08-1.18.22-1.75.44Z"/>
    <path class="cls-1" d="m868.61,552.24c-8.13-10.48-16.34-20.9-24.45-31.39-1.51-1.95-2.97-2.51-5.18-1.16-2.61,1.59-5.46,2.81-8,4.5-2.73,1.81-5.23,1.81-8.24.59-11.94-4.84-23.97-9.45-35.97-14.14-.82-.32-1.62-.65-2.46-.81-2.52,6.39-5.26,12.96-8.2,19.68.3.14.61.27.93.4,11.16,4.37,22.27,8.9,33.4,13.35q9.1,3.64,8.85,13.15c-.11,4.05.56,4.58,5.14,4.1,14.2-1.49,28.39-2.97,42.59-4.46.98-.1,2.24.21,2.78-.84.66-1.28-.54-2.13-1.2-2.97Z"/>
    <path class="cls-2" d="m552.93,149.3c.21-.84.3-1.82.29-2.95-.11-14.52.25-29.03.4-43.55.09-8.34-.72-7.13,7.43-8.84,4.63-.97,4.69-.98,2.47-5.34-6.13-12.03-12.29-24.05-18.47-36.06-.5-.98-.72-2.53-2-2.55-1.55-.03-1.71,1.69-2.26,2.75-5.85,11.32-11.65,22.66-17.44,34.01-3.19,6.26-3.21,6.48,3.81,7.55,3.91.6,5.27,2.16,5.23,6.2-.19,15.66-.26,31.33.44,46.99.02.52,0,1.05.02,1.58,2.38-.06,4.76-.1,7.14-.1,4.33,0,8.64.1,12.93.31Z"/>
  </g>
  <path d="m756.31,292.78c2,3.48,3.92,7.01,5.76,10.6-1.84-3.58-3.76-7.12-5.76-10.6Z"/>
  <path d="m785.45,372.75c2.19,12.28,3.49,24.87,3.81,37.7-.33-12.83-1.62-25.42-3.81-37.7Z"/>
  <path d="m720.39,244.76c.13.13.25.27.38.4-.13-.13-.25-.27-.38-.4Z"/>
  <path d="m789.34,416.89c0-2.15-.03-4.3-.08-6.44.05,2.14.08,4.28.08,6.44h0Z"/>
  <path d="m301.46,344.09c.94-3.09,1.95-6.16,3.01-9.2-1.06,3.04-2.06,6.11-3.01,9.2Z"/>
  <path d="m779.89,348.63c1.68,5.92,3.15,11.92,4.39,18.01-1.25-6.09-2.71-12.09-4.39-18.01Z"/>
  <path d="m772.05,325.46c2.98,7.55,5.6,15.28,7.84,23.17-2.24-7.89-4.86-15.62-7.84-23.17Z"/>
  <path d="m736.16,262.95c4.94,6.28,9.58,12.8,13.9,19.55-4.32-6.74-8.96-13.27-13.9-19.55Z"/>
  <path d="m731.81,257.58c1.47,1.77,2.93,3.56,4.35,5.37-1.42-1.81-2.88-3.6-4.35-5.37Z"/>
  <path class="cls-5" d="m540,188.43c31.91,0,62.79,6.42,91.77,19.09,28,12.24,52.96,29.71,74.16,51.93l.08.09.27.29c3.46,3.65,6.88,7.49,10.15,11.43,1.51,1.82,2.82,3.44,4.01,4.94,4.53,5.77,8.83,11.82,12.79,17.98,1.98,3.09,3.91,6.27,5.75,9.46,1.84,3.19,3.62,6.47,5.29,9.75,3.38,6.59,6.46,13.42,9.18,20.31,2.74,6.95,5.16,14.11,7.2,21.29,1.55,5.44,2.9,11.01,4.04,16.56.38,1.85.74,3.74,1.08,5.62,2.03,11.38,3.21,23.05,3.51,34.69.05,1.97.08,3.96.08,5.93,0,6.39-.67,13.56-1.99,21.33-.5,2.92-1.1,5.98-1.78,9.09-1.36,6.18-3.11,12.8-5.2,19.68-.69,2.27-1.43,4.61-2.2,6.95-.76,2.33-1.58,4.72-2.42,7.12-.84,2.39-1.72,4.84-2.63,7.28-2.25,6.04-4.76,12.38-7.46,18.84-.54,1.28-1.08,2.57-1.64,3.87-1.09,2.56-2.24,5.19-3.41,7.82-1.16,2.6-2.36,5.27-3.58,7.93-.61,1.33-1.23,2.66-1.85,4-3.07,6.57-6.38,13.4-9.84,20.32-2.04,4.06-4.17,8.23-6.34,12.41-1.42,2.74-2.9,5.55-4.39,8.34-1.47,2.77-2.99,5.59-4.51,8.39-5.18,9.54-10.76,19.5-16.59,29.59-1.62,2.81-3.29,5.66-4.94,8.49-1.66,2.83-3.33,5.66-5.02,8.48-1.68,2.83-3.38,5.65-5.08,8.47-1.7,2.82-3.42,5.64-5.14,8.45-5.84,9.54-12,19.4-18.32,29.31-1.76,2.76-3.53,5.52-5.3,8.26-20.93,32.48-44.26,66.71-69.34,101.76-1.57,2.2-3.13,4.37-4.67,6.5-5.09,7.08-10.29,14.23-15.45,21.26-1.4,1.91-2.77,3.78-4.12,5.61-1.35,1.83-2.68,3.63-3.98,5.39-4.36,5.89-8.44,11.35-12.16,16.29-3.72-4.95-7.8-10.41-12.16-16.29-1.3-1.76-2.63-3.55-3.98-5.39-1.35-1.83-2.73-3.7-4.12-5.61-4.39-5.98-8.82-12.06-13.15-18.07-2.28-3.16-4.6-6.39-6.96-9.69-3.22-4.5-6.46-9.06-9.63-13.53-2.45-3.47-4.93-6.99-7.44-10.57-1.67-2.39-3.36-4.8-5.05-7.24-12.76-18.35-25.08-36.56-36.61-54.1-2.68-4.07-5.36-8.18-7.97-12.21-2.68-4.13-5.35-8.29-7.95-12.37-.88-1.38-1.76-2.77-2.64-4.15-4.48-7.06-8.88-14.1-13.09-20.94-.86-1.4-1.73-2.81-2.59-4.22-5.26-8.6-10.39-17.15-15.24-25.41-2.51-4.27-4.99-8.55-7.38-12.73-4.94-8.62-9.7-17.15-14.15-25.35-1.52-2.8-3.03-5.62-4.51-8.39-11.57-21.76-21.46-42.22-29.4-60.81-16.8-39.31-25.32-70.99-25.32-94.16s3.34-45.33,9.94-66.97c.84-2.76,1.77-5.61,2.76-8.46,2.87-8.24,6.2-16.31,9.9-23.99,3.2-6.63,6.76-13.19,10.59-19.49,1.9-3.13,3.91-6.26,5.97-9.31,3.08-4.55,6.36-9.05,9.75-13.37,21.01-26.74,48.17-48.85,78.52-63.93,31.82-15.81,66.11-23.83,101.92-23.83m0-20c-79.61,0-150.51,37.31-196.16,95.4-3.7,4.71-7.24,9.56-10.6,14.53-2.24,3.32-4.4,6.69-6.49,10.12-4.16,6.85-8.01,13.93-11.51,21.19-4.07,8.44-7.66,17.16-10.77,26.1-1.06,3.04-2.06,6.11-3.01,9.2-7.02,23.03-10.81,47.47-10.81,72.8,0,27.86,10.36,63.24,26.93,102.02,8.57,20.06,18.81,41.03,30.13,62.33,1.51,2.84,3.04,5.69,4.59,8.54,4.64,8.56,9.45,17.15,14.38,25.76,2.47,4.3,4.96,8.6,7.49,12.9,5.05,8.6,10.2,17.19,15.43,25.73.87,1.42,1.74,2.84,2.62,4.27,4.37,7.1,8.79,14.16,13.23,21.17.89,1.4,1.78,2.8,2.67,4.19,2.67,4.19,5.35,8.35,8.03,12.49,2.68,4.14,5.36,8.25,8.04,12.32,12.5,19.03,24.96,37.36,36.9,54.54,1.71,2.45,3.4,4.88,5.09,7.29,2.53,3.61,5.02,7.16,7.49,10.65,3.29,4.65,6.52,9.2,9.69,13.63,2.38,3.32,4.72,6.57,7.01,9.75,4.59,6.36,9.02,12.44,13.24,18.2,1.41,1.92,2.79,3.8,4.15,5.65,1.36,1.85,2.7,3.65,4.01,5.42,11.8,15.93,21.54,28.73,28.23,37.44,6.69-8.7,16.43-21.51,28.23-37.44,1.31-1.77,2.65-3.58,4.01-5.42,1.36-1.85,2.75-3.73,4.15-5.65,4.93-6.71,10.13-13.87,15.55-21.4,1.55-2.15,3.12-4.34,4.7-6.55,21.39-29.88,45.8-65.18,69.89-102.57,1.78-2.77,3.57-5.55,5.35-8.34,6.23-9.77,12.42-19.67,18.52-29.63,1.74-2.85,3.48-5.7,5.2-8.55,1.72-2.86,3.44-5.72,5.14-8.58,1.7-2.86,3.4-5.73,5.08-8.59,1.68-2.87,3.35-5.73,5.01-8.6,5.8-10.04,11.44-20.08,16.85-30.06,1.55-2.85,3.08-5.7,4.59-8.54,1.51-2.84,3-5.68,4.47-8.5,2.21-4.24,4.36-8.47,6.47-12.67,3.51-7.01,6.88-13.95,10.09-20.82.64-1.37,1.28-2.74,1.9-4.11,1.26-2.73,2.48-5.45,3.69-8.16,1.2-2.71,2.37-5.4,3.52-8.07.57-1.34,1.14-2.67,1.69-4,2.78-6.64,5.38-13.18,7.76-19.6.95-2.57,1.87-5.11,2.76-7.63.88-2.52,1.73-5.03,2.55-7.5.81-2.48,1.59-4.93,2.33-7.37,2.22-7.3,4.1-14.37,5.6-21.19.75-3.41,1.41-6.76,1.97-10.04,1.49-8.74,2.28-17,2.28-24.69,0-2.15-.03-4.3-.08-6.44-.33-12.83-1.62-25.42-3.81-37.7-.37-2.05-.76-4.08-1.17-6.11-1.25-6.09-2.71-12.09-4.39-18.01-2.24-7.89-4.86-15.62-7.84-23.17-2.98-7.55-6.31-14.92-9.98-22.09-1.84-3.58-3.76-7.12-5.76-10.6-2-3.48-4.08-6.91-6.25-10.28-4.32-6.74-8.96-13.27-13.9-19.55-1.42-1.81-2.88-3.6-4.35-5.37-3.54-4.26-7.22-8.4-11.04-12.42-.13-.13-.25-.27-.38-.4-45.41-47.57-109.44-77.21-180.39-77.21h0Z"/>
  <g>
    <path class="cls-5" d="m275.84,944.32c-3.06-5.89-7.31-10.34-12.76-13.34-5.44-3-11.74-4.5-18.88-4.5-7.82,0-14.8,1.76-20.92,5.27-6.12,3.51-10.92,8.5-14.37,14.96-3.46,6.46-5.19,13.94-5.19,22.44s1.73,16.01,5.19,22.53c3.46,6.52,8.25,11.53,14.37,15.04,6.12,3.51,13.1,5.27,20.92,5.27,10.55,0,19.11-2.95,25.68-8.84,6.58-5.89,10.6-13.88,12.08-23.97h-44.4v-15.47h65.15v15.13c-1.25,9.18-4.51,17.62-9.78,25.33-5.27,7.71-12.14,13.85-20.58,18.44-8.45,4.59-17.83,6.88-28.15,6.88-11.11,0-21.26-2.58-30.45-7.73-9.19-5.16-16.47-12.33-21.86-21.5-5.39-9.18-8.08-19.55-8.08-31.11s2.69-21.93,8.08-31.11c5.38-9.18,12.7-16.35,21.94-21.5,9.24-5.16,19.36-7.73,30.36-7.73,12.59,0,23.78,3.09,33.59,9.26,9.81,6.18,16.92,14.93,21.35,26.26h-23.3Z"/>
    <path class="cls-5" d="m402.74,988.86h-71.61c.57,7.48,3.34,13.49,8.33,18.02,4.99,4.53,11.11,6.8,18.37,6.8,10.43,0,17.8-4.36,22.11-13.09h20.92c-2.84,8.61-7.97,15.67-15.39,21.17-7.43,5.5-16.64,8.25-27.64,8.25-8.96,0-16.98-2.01-24.07-6.04-7.09-4.02-12.65-9.69-16.67-17-4.03-7.31-6.04-15.78-6.04-25.42s1.96-18.11,5.87-25.42c3.91-7.31,9.41-12.95,16.5-16.92,7.09-3.97,15.22-5.95,24.41-5.95s16.73,1.93,23.64,5.78c6.92,3.85,12.3,9.26,16.16,16.24,3.85,6.97,5.78,14.99,5.78,24.05,0,3.51-.23,6.69-.68,9.52Zm-19.56-15.64c-.11-7.14-2.67-12.86-7.65-17.17-4.99-4.31-11.17-6.46-18.54-6.46-6.69,0-12.42,2.12-17.18,6.38-4.76,4.25-7.6,10-8.5,17.25h51.88Z"/>
    <path class="cls-5" d="m434.88,1023.96c-7.14-4.02-12.76-9.69-16.84-17-4.08-7.31-6.12-15.78-6.12-25.42s2.1-17.96,6.29-25.33c4.19-7.37,9.92-13.03,17.18-17,7.26-3.97,15.36-5.95,24.32-5.95s17.07,1.98,24.32,5.95c7.26,3.97,12.98,9.63,17.18,17,4.19,7.37,6.29,15.81,6.29,25.33s-2.16,17.96-6.46,25.33c-4.31,7.37-10.18,13.06-17.61,17.08-7.43,4.02-15.62,6.04-24.58,6.04s-16.84-2.01-23.98-6.04Zm38.02-14.37c4.36-2.38,7.91-5.95,10.63-10.71,2.72-4.76,4.08-10.54,4.08-17.34s-1.3-12.55-3.91-17.25c-2.61-4.7-6.07-8.25-10.38-10.62-4.31-2.38-8.96-3.57-13.95-3.57s-9.61,1.19-13.86,3.57-7.63,5.92-10.12,10.62c-2.5,4.7-3.74,10.46-3.74,17.25,0,10.09,2.58,17.88,7.74,23.38,5.16,5.5,11.65,8.25,19.48,8.25,4.99,0,9.67-1.19,14.03-3.57Z"/>
    <path class="cls-5" d="m600.89,962.51c-2.84,5.33-7.37,9.66-13.61,13-6.24,3.34-14.23,5.01-23.98,5.01h-21.43v47.94h-19.39v-118.15h40.82c9.07,0,16.75,1.56,23.05,4.68,6.29,3.12,11,7.34,14.12,12.67,3.12,5.33,4.68,11.28,4.68,17.85,0,6.01-1.42,11.67-4.25,17Zm-21.09-2.8c3.63-3.34,5.44-8.08,5.44-14.2,0-12.92-7.31-19.38-21.94-19.38h-21.43v38.59h21.43c7.37,0,12.87-1.67,16.5-5.01Z"/>
    <path class="cls-5" d="m636.1,1023.96c-7.14-4.02-12.76-9.69-16.84-17-4.08-7.31-6.12-15.78-6.12-25.42s2.1-17.96,6.29-25.33c4.19-7.37,9.92-13.03,17.18-17,7.26-3.97,15.36-5.95,24.32-5.95s17.07,1.98,24.32,5.95c7.26,3.97,12.98,9.63,17.18,17,4.19,7.37,6.29,15.81,6.29,25.33s-2.16,17.96-6.46,25.33c-4.31,7.37-10.18,13.06-17.6,17.08-7.43,4.02-15.62,6.04-24.58,6.04s-16.84-2.01-23.98-6.04Zm38.02-14.37c4.36-2.38,7.91-5.95,10.63-10.71,2.72-4.76,4.08-10.54,4.08-17.34s-1.31-12.55-3.91-17.25c-2.61-4.7-6.07-8.25-10.38-10.62-4.31-2.38-8.96-3.57-13.95-3.57s-9.61,1.19-13.86,3.57-7.63,5.92-10.12,10.62c-2.5,4.7-3.74,10.46-3.74,17.25,0,10.09,2.58,17.88,7.74,23.38,5.16,5.5,11.65,8.25,19.48,8.25,4.99,0,9.67-1.19,14.03-3.57Z"/>
    <path class="cls-5" d="m737.9,1026c-5.84-2.66-10.46-6.29-13.86-10.88-3.4-4.59-5.22-9.72-5.44-15.39h20.07c.34,3.97,2.24,7.28,5.7,9.95,3.46,2.66,7.79,4,13.01,4s9.67-1.05,12.67-3.14c3-2.1,4.51-4.79,4.51-8.08,0-3.51-1.67-6.12-5.02-7.82-3.35-1.7-8.65-3.57-15.9-5.61-7.03-1.93-12.76-3.79-17.18-5.61-4.42-1.81-8.25-4.59-11.48-8.33-3.23-3.74-4.85-8.67-4.85-14.79,0-4.99,1.47-9.55,4.42-13.69,2.95-4.14,7.17-7.39,12.67-9.77,5.5-2.38,11.82-3.57,18.97-3.57,10.66,0,19.25,2.69,25.77,8.08,6.52,5.38,10.01,12.72,10.46,22.01h-19.39c-.34-4.19-2.04-7.54-5.1-10.03-3.06-2.49-7.2-3.74-12.42-3.74s-9.01.96-11.74,2.89c-2.72,1.93-4.08,4.48-4.08,7.65,0,2.49.91,4.59,2.72,6.29,1.81,1.7,4.02,3.03,6.63,4,2.61.96,6.46,2.18,11.57,3.65,6.8,1.81,12.39,3.66,16.75,5.53,4.36,1.87,8.14,4.62,11.31,8.25,3.17,3.63,4.82,8.44,4.93,14.45,0,5.33-1.48,10.09-4.42,14.28-2.95,4.19-7.12,7.48-12.5,9.86-5.39,2.38-11.71,3.57-18.97,3.57s-13.98-1.33-19.82-4Z"/>
    <path class="cls-5" d="m895.5,988.86h-71.61c.57,7.48,3.34,13.49,8.33,18.02,4.99,4.53,11.11,6.8,18.37,6.8,10.43,0,17.8-4.36,22.11-13.09h20.92c-2.84,8.61-7.97,15.67-15.39,21.17-7.43,5.5-16.64,8.25-27.64,8.25-8.96,0-16.98-2.01-24.07-6.04-7.09-4.02-12.65-9.69-16.67-17-4.03-7.31-6.04-15.78-6.04-25.42s1.96-18.11,5.87-25.42,9.41-12.95,16.5-16.92c7.09-3.97,15.22-5.95,24.41-5.95s16.73,1.93,23.64,5.78c6.92,3.85,12.3,9.26,16.16,16.24,3.85,6.97,5.78,14.99,5.78,24.05,0,3.51-.23,6.69-.68,9.52Zm-19.56-15.64c-.11-7.14-2.67-12.86-7.65-17.17-4.99-4.31-11.17-6.46-18.54-6.46-6.69,0-12.42,2.12-17.18,6.38-4.76,4.25-7.6,10-8.5,17.25h51.88Z"/>
  </g>
</svg>